<mxfile host="fc4c5a37-5368-4b7c-a00e-870ca5d37f16" modified="2020-12-18T06:10:54.536Z" agent="5.0 (Windows NT 10.0; Win64; x64) AppleWebKit/537.36 (KHTML, like Gecko) Code/1.52.1 Chrome/83.0.4103.122 Electron/9.3.5 Safari/537.36" etag="tbIkczOtvP6JiruJinDe" version="13.10.0" type="embed"><diagram id="K1DPzS_2qWYMlx1yPeLn" name="Page-1"><mxGraphModel dx="1118" dy="1735" grid="0" gridSize="10" guides="1" tooltips="1" connect="1" arrows="1" fold="1" page="1" pageScale="1" pageWidth="827" pageHeight="1169" background="#000000" math="0" shadow="1"><root><mxCell id="0"/><mxCell id="1" parent="0"/><mxCell id="3" value="ChunkID" style="rounded=0;whiteSpace=wrap;html=1;fillColor=#60a917;strokeColor=#2D7600;fontColor=#ffffff;" parent="1" vertex="1"><mxGeometry x="400" y="70" width="120" height="40" as="geometry"/></mxCell><mxCell id="4" value="ChunkSize" style="rounded=0;whiteSpace=wrap;html=1;fillColor=#60a917;strokeColor=#2D7600;fontColor=#ffffff;" parent="1" vertex="1"><mxGeometry x="400" y="110" width="120" height="40" as="geometry"/></mxCell><mxCell id="5" value="Format" style="rounded=0;whiteSpace=wrap;html=1;fillColor=#60a917;strokeColor=#2D7600;fontColor=#ffffff;" parent="1" vertex="1"><mxGeometry x="400" y="150" width="120" height="40" as="geometry"/></mxCell><mxCell id="6" value="SubChunk1ID" style="rounded=0;whiteSpace=wrap;html=1;fillColor=#0050ef;strokeColor=#001DBC;fontColor=#ffffff;" parent="1" vertex="1"><mxGeometry x="400" y="190" width="120" height="40" as="geometry"/></mxCell><mxCell id="7" value="SubChunk1Size" style="rounded=0;whiteSpace=wrap;html=1;fillColor=#0050ef;strokeColor=#001DBC;fontColor=#ffffff;" parent="1" vertex="1"><mxGeometry x="400" y="230" width="120" height="40" as="geometry"/></mxCell><mxCell id="8" value="AudioFormat" style="rounded=0;whiteSpace=wrap;html=1;fillColor=#0050ef;strokeColor=#001DBC;fontColor=#ffffff;" parent="1" vertex="1"><mxGeometry x="400" y="270" width="120" height="40" as="geometry"/></mxCell><mxCell id="9" value="NumChannels" style="rounded=0;whiteSpace=wrap;html=1;fillColor=#0050ef;strokeColor=#001DBC;fontColor=#ffffff;" parent="1" vertex="1"><mxGeometry x="400" y="310" width="120" height="40" as="geometry"/></mxCell><mxCell id="10" value="SampleRate" style="rounded=0;whiteSpace=wrap;html=1;fillColor=#0050ef;strokeColor=#001DBC;fontColor=#ffffff;" parent="1" vertex="1"><mxGeometry x="400" y="350" width="120" height="40" as="geometry"/></mxCell><mxCell id="11" value="ByteRate" style="rounded=0;whiteSpace=wrap;html=1;fillColor=#0050ef;strokeColor=#001DBC;fontColor=#ffffff;" parent="1" vertex="1"><mxGeometry x="400" y="390" width="120" height="40" as="geometry"/></mxCell><mxCell id="12" value="BlockAlign" style="rounded=0;whiteSpace=wrap;html=1;fillColor=#0050ef;strokeColor=#001DBC;fontColor=#ffffff;" parent="1" vertex="1"><mxGeometry x="400" y="430" width="120" height="40" as="geometry"/></mxCell><mxCell id="13" value="BitsPerSample" style="rounded=0;whiteSpace=wrap;html=1;fillColor=#0050ef;strokeColor=#001DBC;fontColor=#ffffff;" parent="1" vertex="1"><mxGeometry x="400" y="470" width="120" height="40" as="geometry"/></mxCell><mxCell id="14" value="SubChunk2Size" style="rounded=0;whiteSpace=wrap;html=1;strokeColor=#3A5431;fontColor=#ffffff;fillColor=#00FFFF;" parent="1" vertex="1"><mxGeometry x="400" y="550" width="120" height="40" as="geometry"/></mxCell><mxCell id="15" value="SubChunk2ID" style="rounded=0;whiteSpace=wrap;html=1;strokeColor=#3A5431;fontColor=#ffffff;fillColor=#33FFFF;" parent="1" vertex="1"><mxGeometry x="400" y="510" width="120" height="40" as="geometry"/></mxCell><mxCell id="16" value="Data" style="rounded=0;whiteSpace=wrap;html=1;strokeColor=#3A5431;fontColor=#ffffff;fillColor=#00FFFF;" parent="1" vertex="1"><mxGeometry x="400" y="590" width="120" height="110" as="geometry"/></mxCell><mxCell id="17" value="" style="labelPosition=right;align=left;strokeWidth=1;shape=mxgraph.mockup.markup.curlyBrace;html=1;shadow=0;dashed=0;strokeColor=#999999;direction=north;rotation=-180;" parent="1" vertex="1"><mxGeometry x="700" y="70" width="20" height="120" as="geometry"/></mxCell><mxCell id="20" value="The &quot;RIFF&quot; chunk descriptor" style="rounded=0;whiteSpace=wrap;html=1;fontColor=#00FF00;" parent="1" vertex="1"><mxGeometry x="730" y="70" width="170" height="40" as="geometry"/></mxCell><mxCell id="21" value="The Format of concern here is &quot;WAVE&quot;, which requires two sub-chunks: &quot;fmt&quot; and &quot;data&quot;" style="rounded=0;whiteSpace=wrap;html=1;fontColor=#00FF00;" parent="1" vertex="1"><mxGeometry x="730" y="120" width="170" height="60" as="geometry"/></mxCell><mxCell id="22" value="" style="labelPosition=right;align=left;strokeWidth=1;shape=mxgraph.mockup.markup.curlyBrace;html=1;shadow=0;dashed=0;strokeColor=#999999;direction=north;rotation=-180;" parent="1" vertex="1"><mxGeometry x="700" y="200" width="20" height="310" as="geometry"/></mxCell><mxCell id="23" value="The &quot;fmt&quot; sub-chunk&lt;br&gt;describes the format of sound infotmation in the data sub-chunk" style="rounded=0;whiteSpace=wrap;html=1;fontColor=#007FFF;" parent="1" vertex="1"><mxGeometry x="730" y="325" width="170" height="60" as="geometry"/></mxCell><mxCell id="24" value="" style="labelPosition=right;align=left;strokeWidth=1;shape=mxgraph.mockup.markup.curlyBrace;html=1;shadow=0;dashed=0;strokeColor=#999999;direction=north;rotation=-180;" parent="1" vertex="1"><mxGeometry x="700" y="520" width="20" height="180" as="geometry"/></mxCell><mxCell id="25" value="The &quot;data&quot; sub-chunk&lt;br&gt;Indicates the size of sound information and contains the raw sound data" style="rounded=0;whiteSpace=wrap;html=1;fontColor=#00FFFF;" parent="1" vertex="1"><mxGeometry x="730" y="580" width="170" height="60" as="geometry"/></mxCell><mxCell id="29" value="big" style="rounded=0;whiteSpace=wrap;html=1;verticalAlign=top;fillColor=none;strokeColor=none;" parent="1" vertex="1"><mxGeometry x="200" y="70" width="120" height="40" as="geometry"/></mxCell><mxCell id="30" value="endian" style="rounded=0;whiteSpace=wrap;html=1;fillColor=none;strokeColor=none;" parent="1" vertex="1"><mxGeometry x="200" y="20" width="120" height="40" as="geometry"/></mxCell><mxCell id="31" value="File offset&lt;br&gt;(Byte)" style="rounded=0;whiteSpace=wrap;html=1;fillColor=none;strokeColor=none;" parent="1" vertex="1"><mxGeometry x="320" y="20" width="77" height="40" as="geometry"/></mxCell><mxCell id="32" value="field name" style="rounded=0;whiteSpace=wrap;html=1;fillColor=none;strokeColor=none;" parent="1" vertex="1"><mxGeometry x="400" y="20" width="120" height="40" as="geometry"/></mxCell><mxCell id="33" value="Field Size&lt;br&gt;(Byte)" style="rounded=0;whiteSpace=wrap;html=1;fillColor=none;strokeColor=none;" parent="1" vertex="1"><mxGeometry x="520" y="20" width="70" height="40" as="geometry"/></mxCell><mxCell id="35" value="little" style="rounded=0;whiteSpace=wrap;html=1;verticalAlign=top;fillColor=none;strokeColor=none;" parent="1" vertex="1"><mxGeometry x="200" y="110" width="120" height="40" as="geometry"/></mxCell><mxCell id="38" value="big" style="rounded=0;whiteSpace=wrap;html=1;verticalAlign=top;fillColor=none;strokeColor=none;" parent="1" vertex="1"><mxGeometry x="200" y="150" width="120" height="40" as="geometry"/></mxCell><mxCell id="43" value="big" style="rounded=0;whiteSpace=wrap;html=1;verticalAlign=top;fillColor=none;strokeColor=none;" parent="1" vertex="1"><mxGeometry x="200" y="190" width="120" height="40" as="geometry"/></mxCell><mxCell id="44" value="little" style="rounded=0;whiteSpace=wrap;html=1;verticalAlign=top;fillColor=none;strokeColor=none;" parent="1" vertex="1"><mxGeometry x="200" y="230" width="120" height="40" as="geometry"/></mxCell><mxCell id="46" value="&lt;span style=&quot;font-family: &amp;#34;helvetica&amp;#34;&quot;&gt;little&lt;/span&gt;" style="rounded=0;whiteSpace=wrap;html=1;verticalAlign=top;fillColor=none;strokeColor=none;" parent="1" vertex="1"><mxGeometry x="200" y="310" width="120" height="40" as="geometry"/></mxCell><mxCell id="47" value="&lt;span style=&quot;font-family: &amp;#34;helvetica&amp;#34;&quot;&gt;little&lt;/span&gt;" style="rounded=0;whiteSpace=wrap;html=1;verticalAlign=top;fillColor=none;strokeColor=none;" parent="1" vertex="1"><mxGeometry x="200" y="350" width="120" height="40" as="geometry"/></mxCell><mxCell id="48" value="&lt;span style=&quot;font-family: &amp;#34;helvetica&amp;#34;&quot;&gt;little&lt;/span&gt;" style="rounded=0;whiteSpace=wrap;html=1;verticalAlign=top;fillColor=none;strokeColor=none;" parent="1" vertex="1"><mxGeometry x="200" y="390" width="120" height="40" as="geometry"/></mxCell><mxCell id="49" value="&lt;span style=&quot;font-family: &amp;#34;helvetica&amp;#34;&quot;&gt;little&lt;/span&gt;" style="rounded=0;whiteSpace=wrap;html=1;verticalAlign=top;fillColor=none;strokeColor=none;" parent="1" vertex="1"><mxGeometry x="200" y="430" width="120" height="40" as="geometry"/></mxCell><mxCell id="50" value="&lt;span style=&quot;font-family: &amp;#34;helvetica&amp;#34;&quot;&gt;little&lt;/span&gt;" style="rounded=0;whiteSpace=wrap;html=1;verticalAlign=top;fillColor=none;strokeColor=none;" parent="1" vertex="1"><mxGeometry x="200" y="470" width="120" height="40" as="geometry"/></mxCell><mxCell id="51" value="big" style="rounded=0;whiteSpace=wrap;html=1;verticalAlign=top;fillColor=none;strokeColor=none;" parent="1" vertex="1"><mxGeometry x="200" y="510" width="120" height="40" as="geometry"/></mxCell><mxCell id="52" value="0" style="rounded=0;whiteSpace=wrap;html=1;fillColor=none;strokeColor=none;verticalAlign=top;" parent="1" vertex="1"><mxGeometry x="320" y="70" width="77" height="40" as="geometry"/></mxCell><mxCell id="53" value="4" style="rounded=0;whiteSpace=wrap;html=1;fillColor=none;strokeColor=none;verticalAlign=top;" parent="1" vertex="1"><mxGeometry x="320" y="110" width="77" height="40" as="geometry"/></mxCell><mxCell id="54" value="8" style="rounded=0;whiteSpace=wrap;html=1;fillColor=none;strokeColor=none;verticalAlign=top;" parent="1" vertex="1"><mxGeometry x="320" y="150" width="77" height="40" as="geometry"/></mxCell><mxCell id="55" value="12" style="rounded=0;whiteSpace=wrap;html=1;fillColor=none;strokeColor=none;verticalAlign=top;" parent="1" vertex="1"><mxGeometry x="320" y="190" width="77" height="40" as="geometry"/></mxCell><mxCell id="56" value="16" style="rounded=0;whiteSpace=wrap;html=1;fillColor=none;strokeColor=none;verticalAlign=top;" parent="1" vertex="1"><mxGeometry x="320" y="230" width="77" height="40" as="geometry"/></mxCell><mxCell id="57" value="20" style="rounded=0;whiteSpace=wrap;html=1;fillColor=none;strokeColor=none;rotation=0;verticalAlign=top;" parent="1" vertex="1"><mxGeometry x="320" y="270" width="77" height="40" as="geometry"/></mxCell><mxCell id="58" value="22" style="rounded=0;whiteSpace=wrap;html=1;fillColor=none;strokeColor=none;verticalAlign=top;" parent="1" vertex="1"><mxGeometry x="320" y="310" width="77" height="40" as="geometry"/></mxCell><mxCell id="59" value="24" style="rounded=0;whiteSpace=wrap;html=1;fillColor=none;strokeColor=none;verticalAlign=top;" parent="1" vertex="1"><mxGeometry x="320" y="350" width="77" height="40" as="geometry"/></mxCell><mxCell id="60" value="28" style="rounded=0;whiteSpace=wrap;html=1;fillColor=none;strokeColor=none;verticalAlign=top;" parent="1" vertex="1"><mxGeometry x="320" y="390" width="77" height="40" as="geometry"/></mxCell><mxCell id="61" value="32" style="rounded=0;whiteSpace=wrap;html=1;fillColor=none;strokeColor=none;verticalAlign=top;" parent="1" vertex="1"><mxGeometry x="320" y="430" width="77" height="40" as="geometry"/></mxCell><mxCell id="62" value="34" style="rounded=0;whiteSpace=wrap;html=1;fillColor=none;strokeColor=none;verticalAlign=top;" parent="1" vertex="1"><mxGeometry x="320" y="470" width="77" height="40" as="geometry"/></mxCell><mxCell id="63" value="36" style="rounded=0;whiteSpace=wrap;html=1;fillColor=none;strokeColor=none;verticalAlign=top;" parent="1" vertex="1"><mxGeometry x="320" y="510" width="77" height="40" as="geometry"/></mxCell><mxCell id="64" value="4" style="rounded=0;whiteSpace=wrap;html=1;align=left;verticalAlign=top;fillColor=none;strokeColor=none;" parent="1" vertex="1"><mxGeometry x="550" y="70" width="50" height="40" as="geometry"/></mxCell><mxCell id="65" value="4" style="rounded=0;whiteSpace=wrap;html=1;align=left;verticalAlign=top;fillColor=none;strokeColor=none;" parent="1" vertex="1"><mxGeometry x="550" y="110" width="50" height="40" as="geometry"/></mxCell><mxCell id="66" value="4" style="rounded=0;whiteSpace=wrap;html=1;align=left;verticalAlign=top;fillColor=none;strokeColor=none;" parent="1" vertex="1"><mxGeometry x="550" y="150" width="50" height="40" as="geometry"/></mxCell><mxCell id="67" value="4" style="rounded=0;whiteSpace=wrap;html=1;align=left;verticalAlign=top;fillColor=none;strokeColor=none;" parent="1" vertex="1"><mxGeometry x="550" y="190" width="50" height="40" as="geometry"/></mxCell><mxCell id="68" value="4" style="rounded=0;whiteSpace=wrap;html=1;align=left;verticalAlign=top;fillColor=none;strokeColor=none;" parent="1" vertex="1"><mxGeometry x="550" y="230" width="50" height="40" as="geometry"/></mxCell><mxCell id="69" value="2" style="rounded=0;whiteSpace=wrap;html=1;align=left;verticalAlign=top;fillColor=none;strokeColor=none;" parent="1" vertex="1"><mxGeometry x="550" y="270" width="50" height="40" as="geometry"/></mxCell><mxCell id="70" value="2" style="rounded=0;whiteSpace=wrap;html=1;align=left;verticalAlign=top;fillColor=none;strokeColor=none;" parent="1" vertex="1"><mxGeometry x="550" y="310" width="50" height="40" as="geometry"/></mxCell><mxCell id="71" value="4" style="rounded=0;whiteSpace=wrap;html=1;align=left;verticalAlign=top;fillColor=none;strokeColor=none;" parent="1" vertex="1"><mxGeometry x="550" y="350" width="50" height="40" as="geometry"/></mxCell><mxCell id="72" value="4" style="rounded=0;whiteSpace=wrap;html=1;align=left;verticalAlign=top;fillColor=none;strokeColor=none;" parent="1" vertex="1"><mxGeometry x="550" y="390" width="50" height="40" as="geometry"/></mxCell><mxCell id="73" value="2" style="rounded=0;whiteSpace=wrap;html=1;verticalAlign=top;align=left;fillColor=none;strokeColor=none;" parent="1" vertex="1"><mxGeometry x="550" y="430" width="50" height="40" as="geometry"/></mxCell><mxCell id="74" value="2" style="rounded=0;whiteSpace=wrap;html=1;fillColor=none;strokeColor=none;align=left;verticalAlign=top;" parent="1" vertex="1"><mxGeometry x="550" y="470" width="50" height="40" as="geometry"/></mxCell><mxCell id="75" value="4" style="rounded=0;whiteSpace=wrap;html=1;fillColor=none;strokeColor=none;verticalAlign=top;align=left;" parent="1" vertex="1"><mxGeometry x="550" y="510" width="50" height="40" as="geometry"/></mxCell><mxCell id="76" value="&lt;span style=&quot;font-family: &amp;#34;helvetica&amp;#34;&quot;&gt;little&lt;/span&gt;" style="rounded=0;whiteSpace=wrap;html=1;verticalAlign=top;fillColor=none;strokeColor=none;" parent="1" vertex="1"><mxGeometry x="200" y="550" width="120" height="40" as="geometry"/></mxCell><mxCell id="77" value="40" style="rounded=0;whiteSpace=wrap;html=1;fillColor=none;strokeColor=none;verticalAlign=top;" parent="1" vertex="1"><mxGeometry x="320" y="550" width="77" height="40" as="geometry"/></mxCell><mxCell id="78" value="4" style="rounded=0;whiteSpace=wrap;html=1;fillColor=none;strokeColor=none;verticalAlign=top;align=left;" parent="1" vertex="1"><mxGeometry x="550" y="550" width="50" height="40" as="geometry"/></mxCell><mxCell id="79" value="44" style="rounded=0;whiteSpace=wrap;html=1;fillColor=none;strokeColor=none;verticalAlign=top;" parent="1" vertex="1"><mxGeometry x="320" y="590" width="77" height="40" as="geometry"/></mxCell><mxCell id="80" value="SubChunk2Size" style="rounded=0;whiteSpace=wrap;html=1;align=left;verticalAlign=top;rotation=-90;fillColor=none;strokeColor=none;" parent="1" vertex="1"><mxGeometry x="520" y="617.5" width="110" height="55" as="geometry"/></mxCell><mxCell id="82" value="The Cannonical WAVE file format" style="rounded=0;whiteSpace=wrap;html=1;strokeColor=#f0f0f0;fillColor=none;align=center;fontSize=28;fontColor=#FF3333;" parent="1" vertex="1"><mxGeometry x="290" y="-60" width="490" height="60" as="geometry"/></mxCell><mxCell id="87" value="little" style="rounded=0;whiteSpace=wrap;html=1;verticalAlign=top;fillColor=none;strokeColor=none;" parent="1" vertex="1"><mxGeometry x="200" y="270" width="120" height="40" as="geometry"/></mxCell></root></mxGraphModel></diagram></mxfile>